<svg width="22" height="22" viewBox="0 0 22 22" fill="none" xmlns="http://www.w3.org/2000/svg">
<rect x="4" y="1" width="16" height="20" rx="2" stroke="#6C45A6" stroke-width="1.5" stroke-linecap="round" stroke-linejoin="round"/>
<path d="M0 4C0 3.44772 0.447715 3 1 3H7.5C8.05228 3 8.5 3.44772 8.5 4V6.5C8.5 7.05228 8.05228 7.5 7.5 7.5H1C0.447715 7.5 0 7.05228 0 6.5V4Z" fill="#ED1C24"/>
<path d="M11.0464 13.88C11.0464 13.336 11.1317 12.8667 11.3024 12.472C11.4837 12.0667 11.7184 11.7573 12.0064 11.544C12.337 11.288 12.6037 11.096 12.8064 10.968C13.4464 10.5413 13.7664 9.98667 13.7664 9.304V8.824C13.7664 8.344 13.6117 8.01867 13.3024 7.848C13.0037 7.67733 12.4864 7.592 11.7504 7.592C11.0037 7.592 9.98504 7.704 8.69438 7.928V6.76C9.78238 6.55733 10.9024 6.456 12.0544 6.456C13.2064 6.456 14.033 6.62667 14.5344 6.968C15.0464 7.30933 15.3024 7.89067 15.3024 8.712V9.512C15.3024 9.90667 15.233 10.264 15.0944 10.584C14.9557 10.8933 14.7744 11.144 14.5504 11.336C14.1237 11.72 13.6544 12.0613 13.1424 12.36C12.9184 12.4987 12.737 12.6747 12.5984 12.888C12.4597 13.1013 12.3904 13.3307 12.3904 13.576V14.264H11.0464V13.88ZM10.7744 15.272H12.6304V17H10.7744V15.272Z" fill="#6C45A6"/>
</svg>
