<svg width="32" height="32" viewBox="0 0 32 32" fill="none" xmlns="http://www.w3.org/2000/svg">
<rect x="7" y="1" width="24" height="30" rx="2" stroke="#6C45A6" stroke-width="2" stroke-linecap="round" stroke-linejoin="round"/>
<path fill-rule="evenodd" clip-rule="evenodd" d="M8 4H1C0.447715 4 0 4.44772 0 5V11C0 11.5523 0.447715 12 1 12H8H15C15.5523 12 16 11.5523 16 11V5C16 4.44772 15.5523 4 15 4H8Z" fill="#ED1C24"/>
<path d="M18.3751 25.24C17.1591 25.24 15.6311 25.112 13.7911 24.856V22.96C13.8551 22.96 14.1431 23.016 14.6551 23.128C15.1191 23.224 15.5031 23.296 15.8071 23.344C16.1271 23.376 16.4951 23.408 16.9111 23.44C17.4071 23.488 17.8951 23.512 18.3751 23.512V18.04H17.6791C16.1591 18.04 15.0791 17.736 14.4391 17.128C13.7991 16.52 13.4791 15.576 13.4791 14.296V13.288C13.4791 12.136 13.8471 11.272 14.5831 10.696C15.3191 10.12 16.5831 9.784 18.3751 9.688V7.984H19.7431V9.664C20.7351 9.664 22.0231 9.752 23.6071 9.928V11.632C21.6391 11.424 20.3511 11.304 19.7431 11.272V16.312H20.4631C21.5351 16.312 22.3671 16.44 22.9591 16.696C23.5671 16.952 23.9911 17.344 24.2311 17.872C24.4871 18.384 24.6151 19.08 24.6151 19.96V20.848C24.6151 22.304 24.2231 23.368 23.4391 24.04C22.6551 24.712 21.4231 25.096 19.7431 25.192V28.36H18.3751V25.24ZM18.3751 11.296C17.3511 11.36 16.6551 11.536 16.2871 11.824C15.9191 12.112 15.7351 12.576 15.7351 13.216V14.752C15.7351 15.296 15.9351 15.696 16.3351 15.952C16.7351 16.192 17.4151 16.312 18.3751 16.312V11.296ZM19.7431 23.464C20.6071 23.416 21.2551 23.256 21.6871 22.984C22.1191 22.696 22.3351 22.248 22.3351 21.64V19.864C22.3351 19.192 22.1431 18.72 21.7591 18.448C21.3751 18.176 20.7031 18.04 19.7431 18.04V23.464Z" fill="#6C45A6"/>
</svg>
