<svg width="31" height="16" viewBox="0 0 31 16" fill="none" xmlns="http://www.w3.org/2000/svg">
<path d="M27.078 5.23445e-06H9.51333C8.75212 -0.00142913 8.01992 0.291975 7.47034 0.818671L1.47434 6.542C1.27694 6.72911 1.11929 6.9541 1.01081 7.20353C0.90234 7.45295 0.845267 7.72168 0.843008 7.99366C0.838864 8.26554 0.889631 8.53545 0.99227 8.78723C1.09491 9.03902 1.24731 9.2675 1.44034 9.459L7.114 15.1327C7.38804 15.4085 7.71409 15.6271 8.07325 15.776C8.43241 15.9249 8.81754 16.001 9.20633 16H27.078C28.815 16 30.2283 14.5867 30.2283 12.8497V3.15034C30.2283 1.41334 28.815 5.23445e-06 27.078 5.23445e-06Z" fill="#51266B"/>
<path d="M22.7833 7.99996L25.0763 5.70663C25.2637 5.51896 25.3689 5.26463 25.3689 4.99946C25.3689 4.7343 25.2637 4.47997 25.0763 4.29229C24.8887 4.10497 24.6343 3.99976 24.3692 3.99976C24.104 3.99976 23.8497 4.10497 23.662 4.29229L21.369 6.58563L19.076 4.29229C18.698 3.91429 18.039 3.91429 17.6617 4.29229C17.4744 4.47997 17.3691 4.7343 17.3691 4.99946C17.3691 5.26463 17.4744 5.51896 17.6617 5.70663L19.9547 7.99996L17.6617 10.2933C17.4744 10.481 17.3691 10.7353 17.3691 11.0005C17.3691 11.2656 17.4744 11.52 17.6617 11.7076C17.8494 11.8949 18.1037 12.0002 18.3688 12.0002C18.634 12.0002 18.8883 11.8949 19.076 11.7076L21.369 9.41429L23.662 11.7076C23.851 11.8966 24.102 12.0006 24.3693 12.0006C24.6367 12.0006 24.8877 11.8966 25.0763 11.7076C25.2637 11.52 25.3689 11.2656 25.3689 11.0005C25.3689 10.7353 25.2637 10.481 25.0763 10.2933L22.7833 7.99996Z" fill="white"/>
</svg>
