<svg width="22" height="22" viewBox="0 0 22 22" fill="none" xmlns="http://www.w3.org/2000/svg">
<rect x="4" y="1" width="16" height="20" rx="2" stroke="#6C45A6" stroke-width="1.5" stroke-linecap="round" stroke-linejoin="round"/>
<path d="M11.9858 17.16C11.4204 17.16 10.9244 17.1227 10.4978 17.048C10.0818 16.9733 9.67108 16.8453 9.26575 16.664C8.83908 16.472 8.50842 16.1787 8.27375 15.784C8.04975 15.3893 7.93775 14.9093 7.93775 14.344V6.616H9.42575V14.328C9.42575 14.9787 9.64442 15.4427 10.0818 15.72C10.5191 15.9867 11.1644 16.12 12.0178 16.12C12.8711 16.12 13.5058 15.9867 13.9218 15.72C14.3484 15.4427 14.5618 14.9787 14.5618 14.328V6.616H16.0498V14.344C16.0498 16.2213 14.6951 17.16 11.9858 17.16Z" fill="#6C45A6"/>
<path d="M0 4C0 3.44772 0.447715 3 1 3H7.5C8.05228 3 8.5 3.44772 8.5 4V6.5C8.5 7.05228 8.05228 7.5 7.5 7.5H1C0.447715 7.5 0 7.05228 0 6.5V4Z" fill="#ED1C24"/>
</svg>
